<svg width="40" height="29" viewBox="0 0 40 29" fill="none" xmlns="http://www.w3.org/2000/svg">
<path fill-rule="evenodd" clip-rule="evenodd" d="M39.1034 7.83463L37.2374 9.70695L34.2531 6.7163L31.2656 9.70695L29.3965 7.83463L32.3808 4.84397L29.4155 1.87233L31.2847 0L34.25 2.97165L37.2184 0L39.0876 1.87233L36.1191 4.84397L39.1034 7.83463Z" fill="url(#paint0_linear_1141_2488)"/>
<path d="M0 16.357V0.00976562H8.35419L13.2045 10.1856L18.0295 0.00976562H26.3615V16.357H21.0106V5.08817L15.6819 16.357H10.6954L5.35086 5.08817V16.357H0Z" fill="white"/>
<path d="M30.5053 28.6489C23.9728 28.6489 21.0106 25.7121 21.0106 20.2028H26.3615C26.3615 22.091 27.0458 24.1407 30.5053 24.1407C33.9648 24.1407 34.627 22.0688 34.627 20.2028V16.3568H28.5031V11.8486H40V20.2028C40 25.6899 37.2438 28.6489 30.5053 28.6489Z" fill="white"/>
<defs>
<linearGradient id="paint0_linear_1141_2488" x1="29.8694" y1="1.45804" x2="37.9313" y2="9.7844" gradientUnits="userSpaceOnUse">
<stop offset="4.86654e-09" stop-color="#F1126F"/>
<stop offset="1" stop-color="#2D26FF"/>
</linearGradient>
</defs>
</svg>
