<svg xmlns="http://www.w3.org/2000/svg" width="32" height="31" viewBox="0 0 32 31" fill="none"><g clip-path="url(#clip0_2115_593)"><g clip-path="url(#clip1_2115_593)"><path d="M27.774 6.98308V24.1184C27.774 25.4704 26.678 26.5664 25.326 26.5664H20.736C20.398 26.5664 20.1241 26.2925 20.1241 25.9544V18.6106H22.9882C23.2791 18.6108 23.5298 18.406 23.5879 18.1211L24.0286 15.918C24.0468 15.829 24.0245 15.7364 23.9678 15.6655C23.9109 15.5947 23.8256 15.5525 23.7348 15.5508H20.1241V11.5729C20.1241 11.4039 20.2611 11.2669 20.4301 11.2669H23.49C23.8281 11.2669 24.102 10.9929 24.102 10.655V8.81902C24.102 8.48103 23.8281 8.20703 23.49 8.20703H20.4301C18.4021 8.20703 16.7581 9.85099 16.7581 11.8789V15.5508H15.2526C14.9146 15.5508 14.6406 15.8247 14.6406 16.1628V17.9987C14.6406 18.3367 14.9146 18.6106 15.2526 18.6106H16.7581V25.9544C16.7581 26.2925 16.4842 26.5664 16.146 26.5664H8.19017C6.83818 26.5664 5.74219 25.4704 5.74219 24.1184V6.98308C5.74219 5.63112 6.83818 4.53516 8.19017 4.53516H25.326C26.678 4.53516 27.774 5.63112 27.774 6.98308Z" fill="white"></path></g></g><defs><clipPath id="clip0_2115_593"><rect width="30.8906" height="29.4062" fill="white" transform="translate(0.851562 0.863281)"></rect></clipPath><clipPath id="clip1_2115_593"><rect width="30.875" height="29.375" fill="white" transform="translate(0.851562 0.863281)"></rect></clipPath></defs></svg>