<svg xmlns="http://www.w3.org/2000/svg" width="31" height="31" viewBox="0 0 31 31" fill="none"><g clip-path="url(#clip0_2115_581)"><g clip-path="url(#clip1_2115_581)"><path fill-rule="evenodd" clip-rule="evenodd" d="M11.1668 4.53516H20.9587C24.3387 4.53516 27.0787 7.27508 27.0787 10.655V20.4466C27.0787 23.8265 24.3387 26.5664 20.9587 26.5664H11.1668C7.78687 26.5664 5.04688 23.8265 5.04688 20.4466V10.655C5.04688 7.27508 7.78687 4.53516 11.1668 4.53516ZM21.8823 10.959C22.5582 10.959 23.1062 10.411 23.1062 9.73506C23.1062 9.0591 22.5582 8.51111 21.8823 8.51111C21.2062 8.51111 20.6582 9.0591 20.6582 9.73506C20.6582 10.411 21.2062 10.959 21.8823 10.959ZM16.0641 10.043C13.0221 10.043 10.5561 12.5089 10.5561 15.5508C10.5561 18.5927 13.0221 21.0586 16.0641 21.0586C19.106 21.0586 21.5721 18.5927 21.5721 15.5508C21.5753 14.089 20.996 12.6862 19.9624 11.6526C18.9287 10.619 17.5258 10.0397 16.0641 10.043ZM12.6979 15.5489C12.6979 17.4079 14.2049 18.9148 16.064 18.9148C17.9229 18.9148 19.4298 17.4079 19.4298 15.5489C19.4298 13.6899 17.9229 12.183 16.064 12.183C14.2049 12.183 12.6979 13.6899 12.6979 15.5489Z" fill="white"></path></g></g><defs><clipPath id="clip0_2115_581"><rect width="30.8906" height="29.4062" fill="white" transform="translate(0 0.863281)"></rect></clipPath><clipPath id="clip1_2115_581"><rect width="30.875" height="29.375" fill="white" transform="translate(0 0.863281)"></rect></clipPath></defs></svg>