<svg xmlns="http://www.w3.org/2000/svg" width="30" height="30" viewBox="0 0 30 30" fill="none"><g clip-path="url(#clip0_2115_585)"><path fill-rule="evenodd" clip-rule="evenodd" d="M6.6237 4.48828H23.5404C24.8751 4.48828 25.957 5.57026 25.957 6.90495V23.8216C25.957 25.1563 24.8751 26.2383 23.5404 26.2383H6.6237C5.28901 26.2383 4.20703 25.1563 4.20703 23.8216V6.90495C4.20703 5.57026 5.28901 4.48828 6.6237 4.48828ZM10.2487 22.6133C10.5824 22.6133 10.8529 22.3427 10.8529 22.0091V13.5508C10.8529 13.2172 10.5824 12.9466 10.2487 12.9466H8.4362C8.10253 12.9466 7.83203 13.2172 7.83203 13.5508V22.0091C7.83203 22.3427 8.10253 22.6133 8.4362 22.6133H10.2487ZM9.34245 11.7383C8.34143 11.7383 7.52995 10.9268 7.52995 9.92578C7.52995 8.92476 8.34143 8.11328 9.34245 8.11328C10.3435 8.11328 11.1549 8.92476 11.1549 9.92578C11.1549 10.9268 10.3435 11.7383 9.34245 11.7383ZM21.7279 22.6133C22.0615 22.6133 22.332 22.3427 22.332 22.0091V16.4508C22.3713 14.5305 20.9516 12.8917 19.0454 12.6566C17.7126 12.5349 16.4212 13.1573 15.6862 14.2758V13.5508C15.6862 13.2172 15.4157 12.9466 15.082 12.9466H13.2695C12.9359 12.9466 12.6654 13.2172 12.6654 13.5508V22.0091C12.6654 22.3427 12.9359 22.6133 13.2695 22.6133H15.082C15.4157 22.6133 15.6862 22.3427 15.6862 22.0091V17.4779C15.6862 16.4769 16.4977 15.6654 17.4987 15.6654C18.4997 15.6654 19.3112 16.4769 19.3112 17.4779V22.0091C19.3112 22.3427 19.5817 22.6133 19.9154 22.6133H21.7279Z" fill="white"></path></g><defs><clipPath id="clip0_2115_585"><rect width="29" height="29" fill="white" transform="translate(0.582031 0.863281)"></rect></clipPath></defs></svg>