<?xml version="1.0" encoding="UTF-8"?>
<svg xmlns="http://www.w3.org/2000/svg" width="68" height="70" viewBox="0 0 68 70" fill="none">
  <path d="M60.1467 55.5777C60.1467 57.3345 59.9972 59.0352 59.6982 60.6798C59.3992 62.3244 58.7824 63.8008 57.848 65.1091C56.9509 66.4173 55.624 67.4639 53.8672 68.2488C52.1479 69.0337 49.8491 69.4262 46.971 69.4262C44.8405 69.4262 43.0277 69.1085 41.5326 68.4731C40.0374 67.8003 38.804 66.9032 37.8322 65.7819C36.8603 64.6232 36.1501 63.2589 35.7016 61.689C35.2531 60.1191 35.0288 58.4184 35.0288 56.5869V54.4564H42.0372V56.5308C42.0372 58.8109 42.4109 60.5863 43.1585 61.8572C43.9434 63.0907 45.4012 63.7074 47.5317 63.7074C48.653 63.7074 49.5688 63.5392 50.279 63.2028C51.0265 62.8664 51.6059 62.3805 52.017 61.7451C52.4656 61.0723 52.7646 60.2499 52.9141 59.2781C53.0636 58.3063 53.1384 57.2036 53.1384 55.9702V28.4414H60.1467V55.5777Z" fill="white"></path>
  <path fill-rule="evenodd" clip-rule="evenodd" d="M57.4339 17.7805L57.4266 17.7858L57.4194 17.7914C57.1869 17.9741 56.887 18.1447 56.5101 18.297C56.17 18.4167 55.7358 18.4851 55.1938 18.4851C54.3664 18.4851 53.7192 18.2382 53.2079 17.7681C52.7438 17.3247 52.473 16.6604 52.473 15.6825C52.473 15.1504 52.5656 14.7564 52.7156 14.4707C52.9159 14.1285 53.1443 13.8421 53.3989 13.6064C53.6895 13.3555 53.994 13.1487 54.3125 12.9841C54.522 12.8758 54.723 12.7672 54.9155 12.658L58.3295 16.825C58.2494 16.9281 58.1633 17.0371 58.0714 17.1521L58.063 17.1626L58.0551 17.1734C57.9041 17.381 57.7001 17.5844 57.4339 17.7805ZM51.889 15.6825C51.889 16.7738 52.1955 17.611 52.8086 18.1943C53.4408 18.7775 54.2359 19.0691 55.1938 19.0691C55.7877 19.0691 56.2954 18.9939 56.7169 18.8433C57.1384 18.674 57.4929 18.4765 57.7802 18.2507C58.0868 18.0249 58.3358 17.7803 58.5274 17.5169C58.7382 17.2535 58.9202 17.0184 59.0734 16.8114L55.0501 11.9009C54.7436 12.089 54.4083 12.2771 54.0443 12.4653C53.6803 12.6534 53.3354 12.8886 53.0097 13.1708C52.7032 13.453 52.435 13.7917 52.2051 14.1868C51.9943 14.5819 51.889 15.0805 51.889 15.6825ZM55.2196 4.02982L55.2246 4.02518L55.2294 4.02043C55.5372 3.71819 55.9056 3.56689 56.3721 3.56689C56.846 3.56689 57.1859 3.72701 57.4499 4.03805L57.4539 4.04274L57.4579 4.04735C57.7334 4.35839 57.8859 4.75995 57.8859 5.29702C57.8859 5.62531 57.8304 5.90455 57.7302 6.14361C57.6218 6.40211 57.4755 6.63778 57.2897 6.85233C57.0858 7.06835 56.8548 7.27876 56.5955 7.48316C56.4562 7.58339 56.3145 7.68367 56.1705 7.78401C56.0746 7.669 55.9751 7.55241 55.872 7.43423C55.6746 7.18719 55.4861 6.94049 55.3065 6.69413C55.1535 6.44237 55.0176 6.19198 54.8983 5.94297C54.8151 5.71764 54.772 5.47546 54.772 5.21236C54.772 4.66616 54.9364 4.29536 55.2196 4.02982ZM56.056 8.57072C56.3625 8.36376 56.6595 8.1568 56.9468 7.94984C57.2342 7.72407 57.4929 7.48889 57.7228 7.24431C57.9527 6.98091 58.1347 6.68928 58.2688 6.36944C58.4029 6.04959 58.4699 5.69212 58.4699 5.29702C58.4699 4.63852 58.2784 4.0929 57.8952 3.66017C57.512 3.20863 57.0043 2.98286 56.3721 2.98286C55.759 2.98286 55.2417 3.18982 54.8202 3.60373C54.3987 3.99883 54.188 4.53504 54.188 5.21236C54.188 5.55102 54.2455 5.87086 54.3604 6.17189C54.4945 6.4541 54.6478 6.73632 54.8202 7.01853C55.0118 7.28194 55.213 7.54534 55.4237 7.80874C55.6536 8.07214 55.8644 8.32613 56.056 8.57072Z" fill="white"></path>
  <path fill-rule="evenodd" clip-rule="evenodd" d="M60.4344 19.3986C60.5675 19.258 60.6982 19.1105 60.8265 18.9562L62.6944 21.214H66.7177L62.7806 16.5292C63.2404 15.8142 63.5949 15.0334 63.8439 14.1868C64.0528 13.5274 64.2094 12.8566 64.3137 12.1744C64.3434 11.9807 64.3688 11.786 64.39 11.5904H61.5162C61.4395 12.2489 61.3437 12.7851 61.2288 13.199C61.1853 13.3555 61.1419 13.5052 61.0984 13.6482C61.0269 13.8836 60.9554 14.1007 60.8839 14.2997L57.694 10.518C57.8699 10.425 58.0422 10.3273 58.2109 10.2249C58.52 10.0373 58.8171 9.83401 59.1022 9.61491C59.562 9.27626 59.9547 8.89997 60.2804 8.48605C60.6253 8.05332 60.8935 7.58296 61.0851 7.07498C61.2958 6.56699 61.4012 6.01197 61.4012 5.40991C61.4012 4.60089 61.2575 3.89535 60.9701 3.29329C60.6828 2.69123 60.2996 2.19265 59.8206 1.79755C59.3608 1.38364 58.8148 1.08261 58.1826 0.894465C57.5695 0.687507 56.9373 0.584029 56.2859 0.584029C55.5962 0.584029 54.9448 0.696914 54.3317 0.922686C53.7186 1.14846 53.1822 1.47771 52.7224 1.91044C52.2626 2.32435 51.8985 2.82293 51.6303 3.40618C51.3813 3.98942 51.2567 4.64793 51.2567 5.38169C51.2567 5.81441 51.3142 6.22833 51.4292 6.62343C51.5441 7.01853 51.6974 7.39482 51.889 7.75229C52.0805 8.10977 52.3009 8.45783 52.5499 8.79649C52.6829 8.96726 52.8186 9.14071 52.9571 9.31684C53.0779 9.47059 53.2008 9.6264 53.3259 9.78424C53.1499 9.87341 52.9748 9.96588 52.8006 10.0617C52.3866 10.2892 51.9773 10.5354 51.5728 10.8002C51.0172 11.1765 50.5191 11.6092 50.0785 12.0984C49.6378 12.5688 49.2834 13.0956 49.0152 13.6788C48.747 14.2621 48.6128 14.9112 48.6128 15.6261C48.6128 16.5668 48.7661 17.4135 49.0726 18.166C49.3983 18.8998 49.8486 19.5207 50.4233 20.0287C50.9981 20.5366 51.6782 20.9317 52.4637 21.214C53.2684 21.4774 54.1401 21.6091 55.0789 21.6091C56.2859 21.6091 57.3492 21.4021 58.2688 20.9882C59.0504 20.6279 59.7723 20.098 60.4344 19.3986ZM52.8086 18.1943C52.1955 17.611 51.889 16.7738 51.889 15.6825C51.889 15.0805 51.9943 14.5819 52.2051 14.1868C52.435 13.7917 52.7032 13.453 53.0097 13.1708C53.3354 12.8886 53.6803 12.6534 54.0443 12.4653C54.4083 12.2771 54.7436 12.089 55.0501 11.9009L59.0734 16.8114C58.9202 17.0184 58.7382 17.2535 58.5274 17.5169C58.3358 17.7803 58.0868 18.0249 57.7802 18.2507C57.4929 18.4765 57.1384 18.674 56.7169 18.8433C56.2954 18.9939 55.7877 19.0691 55.1938 19.0691C54.2359 19.0691 53.4408 18.7775 52.8086 18.1943ZM56.9468 7.94984C56.6595 8.1568 56.3625 8.36376 56.056 8.57072C55.8644 8.32613 55.6536 8.07214 55.4237 7.80874C55.213 7.54534 55.0118 7.28194 54.8202 7.01853C54.6478 6.73632 54.4945 6.4541 54.3604 6.17189C54.2455 5.87086 54.188 5.55102 54.188 5.21236C54.188 4.53504 54.3987 3.99883 54.8202 3.60373C55.2417 3.18982 55.759 2.98286 56.3721 2.98286C57.0043 2.98286 57.512 3.20863 57.8952 3.66017C58.2784 4.0929 58.4699 4.63852 58.4699 5.29702C58.4699 5.69212 58.4029 6.04959 58.2688 6.36944C58.1347 6.68928 57.9527 6.98091 57.7228 7.24431C57.4929 7.48889 57.2342 7.72407 56.9468 7.94984Z" fill="white"></path>
  <path d="M60.8265 18.9562C60.6982 19.1105 60.5675 19.258 60.4344 19.3986C59.7723 20.098 59.0504 20.6279 58.2688 20.9882C57.3492 21.4021 56.2859 21.6091 55.0789 21.6091C54.1401 21.6091 53.2684 21.4774 52.4637 21.214C51.6782 20.9317 50.9981 20.5366 50.4233 20.0287C49.8486 19.5207 49.3983 18.8998 49.0726 18.166C48.7661 17.4135 48.6128 16.5668 48.6128 15.6261C48.6128 14.9112 48.747 14.2621 49.0152 13.6788C49.2834 13.0956 49.6378 12.5688 50.0785 12.0984C50.5191 11.6092 51.0172 11.1765 51.5728 10.8002C51.9773 10.5354 52.3866 10.2892 52.8006 10.0617C52.9748 9.96588 53.1499 9.87341 53.3259 9.78424C53.2008 9.6264 53.0779 9.47059 52.9571 9.31684C52.8186 9.14071 52.6829 8.96726 52.5499 8.79649C52.3009 8.45783 52.0805 8.10977 51.889 7.75229C51.6974 7.39482 51.5441 7.01853 51.4292 6.62343C51.3142 6.22833 51.2567 5.81441 51.2567 5.38169C51.2567 4.64793 51.3813 3.98942 51.6303 3.40618C51.8985 2.82293 52.2626 2.32435 52.7224 1.91044C53.1822 1.47771 53.7186 1.14846 54.3317 0.922686L54.1299 0.374638C53.4477 0.625837 52.8448 0.994445 52.3268 1.48071C51.808 1.94895 51.3989 2.5115 51.0997 3.16216L51.0964 3.16945L51.0932 3.17682C50.8087 3.84305 50.6727 4.58135 50.6727 5.38169C50.6727 5.86677 50.7372 6.3358 50.8684 6.78659C50.9945 7.22019 51.1631 7.63431 51.3742 8.02818C51.5793 8.41092 51.8146 8.78236 52.0794 9.14251L52.0842 9.14898L52.0891 9.15531C52.2023 9.30058 52.3173 9.44775 52.4343 9.59683C52.0359 9.81854 51.6421 10.0568 51.2529 10.3116L51.2491 10.3141L51.2453 10.3167C50.653 10.7178 50.1202 11.1801 49.6483 11.7033C49.1667 12.2183 48.7783 12.796 48.4846 13.4348C48.1773 14.1029 48.0288 14.8365 48.0288 15.6261C48.0288 16.6306 48.1926 17.5537 48.5318 18.3863L48.5352 18.3947L48.5388 18.403C48.8969 19.2098 49.396 19.9001 50.0366 20.4663C50.6715 21.0274 51.4173 21.4586 52.2663 21.7636L52.2741 21.7664L52.282 21.769C53.1514 22.0536 54.085 22.1931 55.0789 22.1931C56.3525 22.1931 57.5002 21.9746 58.5085 21.5208L58.5133 21.5186C59.3507 21.1326 60.1155 20.5734 60.8093 19.8517L62.4196 21.798H67.9714L63.4979 16.4749C63.8792 15.8165 64.1806 15.1102 64.4025 14.3574C64.6815 13.4756 64.8708 12.5741 64.9706 11.6533L65.0407 11.0064H60.9962L60.936 11.5229C60.8612 12.1657 60.7698 12.6691 60.6661 13.0428L60.6466 13.1125L58.5918 10.6765C58.8894 10.4923 59.1767 10.294 59.4533 10.0816C59.9493 9.71569 60.3789 9.30507 60.7383 8.84862C61.1178 8.37206 61.4152 7.85202 61.6282 7.28989C61.8686 6.70699 61.9852 6.07806 61.9852 5.40991C61.9852 4.53204 61.8292 3.73726 61.4972 3.04171C61.1778 2.37259 60.7468 1.80699 60.202 1.35506C59.678 0.885986 59.0607 0.547935 58.3594 0.337749C57.6888 0.112581 56.9968 0 56.2859 0C55.5312 0 54.8111 0.123765 54.1299 0.374638L54.3317 0.922686C54.9448 0.696914 55.5962 0.584029 56.2859 0.584029C56.9373 0.584029 57.5695 0.687507 58.1826 0.894465C58.8148 1.08261 59.3608 1.38364 59.8206 1.79755C60.2996 2.19265 60.6828 2.69123 60.9701 3.29329C61.2575 3.89535 61.4012 4.60089 61.4012 5.40991C61.4012 6.01197 61.2958 6.56699 61.0851 7.07498C60.8935 7.58296 60.6253 8.05332 60.2804 8.48605C59.9547 8.89997 59.562 9.27626 59.1022 9.61491C58.8171 9.83401 58.52 10.0373 58.2109 10.2249C58.0422 10.3273 57.8699 10.425 57.694 10.518L60.8839 14.2997C60.9554 14.1007 61.0269 13.8836 61.0984 13.6482C61.1419 13.5052 61.1853 13.3555 61.2288 13.199C61.3437 12.7851 61.4395 12.2489 61.5162 11.5904H64.39C64.3688 11.786 64.3434 11.9807 64.3137 12.1744C64.2094 12.8566 64.0528 13.5274 63.8439 14.1868C63.5949 15.0334 63.2404 15.8142 62.7806 16.5292L66.7177 21.214H62.6944L60.8265 18.9562Z" fill="white"></path>
  <path d="M0.0288086 0H9.89655L20.9417 31.3413H21.0538L31.8187 0H41.5743V40.0317H34.9023V9.13888H34.7902L23.689 40.0317H17.9141L6.81288 9.13888H6.70075V40.0317H0.0288086V0Z" fill="white"></path>
</svg>
