<?xml version="1.0" encoding="UTF-8"?>
<!-- Generator: Adobe Illustrator 28.1.0, SVG Export Plug-In . SVG Version: 6.00 Build 0)  -->
<svg xmlns="http://www.w3.org/2000/svg" xmlns:xlink="http://www.w3.org/1999/xlink" version="1.1" id="Layer_1" x="0px" y="0px" viewBox="0 0 105 75" style="enable-background:new 0 0 105 75;" xml:space="preserve">
<style type="text/css">
	.st0{fill-rule:evenodd;clip-rule:evenodd;fill:#FFFFFF;}
	.st1{fill:#FFFFFF;}
</style>
<g>
	<g>
		<path class="st0" d="M102.4,20.5l-4.9,4.9l-7.8-7.8l-7.8,7.8L77,20.5l7.8-7.8L77,4.9L81.9,0l7.8,7.8L97.4,0l4.9,4.9l-7.8,7.8    L102.4,20.5z"></path>
		<path class="st1" d="M0,42.8V0h21.9l12.7,26.6L47.2,0H69v42.8H55V13.3L41.1,42.8H28L14,13.3v29.5H0z"></path>
		<path class="st1" d="M79.9,75C62.8,75,55,67.3,55,52.9h14c0,4.9,1.8,10.3,10.8,10.3c9.1,0,10.8-5.4,10.8-10.3V42.8h-16V31h30.1    v21.9C104.7,67.3,97.5,75,79.9,75z"></path>
	</g>
</g>
</svg>
