<svg xmlns="http://www.w3.org/2000/svg" width="288" height="74" viewBox="0 0 288 74" fill="none"><path d="M60.1179 60.0562C60.1179 61.813 59.9684 63.5137 59.6694 65.1583C59.3704 66.8029 58.7536 68.2794 57.8192 69.5876C56.9221 70.8958 55.5952 71.9424 53.8384 72.7273C52.1191 73.5123 49.8203 73.9047 46.9422 73.9047C44.8117 73.9047 42.9989 73.587 41.5038 72.9516C40.0086 72.2788 38.7752 71.3817 37.8033 70.2604C36.8315 69.1017 36.1213 67.7374 35.6728 66.1675C35.2243 64.5976 35 62.8969 35 61.0654V58.9349H42.0083V61.0094C42.0083 63.2894 42.3821 65.0649 43.1297 66.3357C43.9146 67.5692 45.3724 68.1859 47.5029 68.1859C48.6242 68.1859 49.54 68.0177 50.2502 67.6813C50.9977 67.3449 51.5771 66.859 51.9882 66.2236C52.4368 65.5508 52.7358 64.7285 52.8853 63.7566C53.0348 62.7848 53.1096 61.6822 53.1096 60.4487V32.9199H60.1179V60.0562Z" fill="white"></path><path fill-rule="evenodd" clip-rule="evenodd" d="M57.4051 22.259L57.3978 22.2644L57.3906 22.27C57.1581 22.4527 56.8582 22.6232 56.4813 22.7756C56.1412 22.8953 55.707 22.9636 55.165 22.9636C54.3376 22.9636 53.6904 22.7167 53.1791 22.2466C52.715 21.8032 52.4442 21.1389 52.4442 20.1611C52.4442 19.6289 52.5368 19.235 52.6868 18.9493C52.8871 18.607 53.1155 18.3206 53.3701 18.085C53.6606 17.834 53.9652 17.6272 54.2837 17.4626C54.4932 17.3543 54.6942 17.2457 54.8867 17.1366L58.3007 21.3035C58.2206 21.4066 58.1345 21.5157 58.0426 21.6306L58.0342 21.6411L58.0263 21.6519C57.8753 21.8595 57.6713 22.0629 57.4051 22.259ZM51.8602 20.1611C51.8602 21.2523 52.1667 22.0895 52.7798 22.6728C53.412 23.256 54.2071 23.5476 55.165 23.5476C55.7589 23.5476 56.2666 23.4724 56.6881 23.3219C57.1096 23.1525 57.4641 22.955 57.7514 22.7292C58.058 22.5034 58.307 22.2589 58.4986 21.9955C58.7094 21.7321 58.8914 21.4969 59.0446 21.2899L55.0213 16.3794C54.7148 16.5675 54.3795 16.7557 54.0155 16.9438C53.6515 17.1319 53.3066 17.3671 52.9809 17.6493C52.6744 17.9316 52.4062 18.2702 52.1763 18.6653C51.9655 19.0604 51.8602 19.559 51.8602 20.1611ZM55.1908 8.50834L55.1958 8.5037L55.2006 8.49894C55.5084 8.1967 55.8768 8.0454 56.3433 8.0454C56.8172 8.0454 57.1571 8.20553 57.4211 8.51657L57.4251 8.52126L57.4291 8.52586C57.7046 8.8369 57.8571 9.23846 57.8571 9.77554C57.8571 10.1038 57.8016 10.3831 57.7014 10.6221C57.593 10.8806 57.4467 11.1163 57.2608 11.3308C57.057 11.5469 56.826 11.7573 56.5667 11.9617C56.4274 12.0619 56.2857 12.1622 56.1417 12.2625C56.0458 12.1475 55.9463 12.0309 55.8432 11.9127C55.6458 11.6657 55.4573 11.419 55.2777 11.1726C55.1247 10.9209 54.9888 10.6705 54.8695 10.4215C54.7863 10.1962 54.7432 9.95398 54.7432 9.69087C54.7432 9.14468 54.9076 8.77388 55.1908 8.50834ZM56.0272 13.0492C56.3337 12.8423 56.6306 12.6353 56.918 12.4284C57.2054 12.2026 57.464 11.9674 57.6939 11.7228C57.9239 11.4594 58.1059 11.1678 58.24 10.848C58.3741 10.5281 58.4411 10.1706 58.4411 9.77554C58.4411 9.11703 58.2496 8.57142 57.8664 8.13869C57.4832 7.68714 56.9755 7.46137 56.3433 7.46137C55.7302 7.46137 55.2129 7.66833 54.7914 8.08225C54.3699 8.47735 54.1592 9.01356 54.1592 9.69087C54.1592 10.0295 54.2167 10.3494 54.3316 10.6504C54.4657 10.9326 54.619 11.2148 54.7914 11.497C54.983 11.7605 55.1842 12.0239 55.3949 12.2873C55.6248 12.5507 55.8356 12.8046 56.0272 13.0492Z" fill="white"></path><path fill-rule="evenodd" clip-rule="evenodd" d="M60.4056 23.8771C60.5387 23.7365 60.6694 23.5891 60.7976 23.4348L62.6656 25.6925H66.6889L62.7518 21.0077C63.2116 20.2928 63.5661 19.512 63.8151 18.6653C64.024 18.0059 64.1806 17.3352 64.2849 16.653C64.3145 16.4592 64.34 16.2645 64.3611 16.0689H61.4874C61.4107 16.7274 61.3149 17.2636 61.2 17.6776C61.1565 17.834 61.1131 17.9837 61.0696 18.1267C60.9981 18.3621 60.9266 18.5792 60.8551 18.7782L57.6652 14.9965C57.8411 14.9035 58.0134 14.8058 58.1821 14.7035C58.4912 14.5159 58.7883 14.3125 59.0734 14.0934C59.5332 13.7548 59.9259 13.3785 60.2516 12.9646C60.5965 12.5318 60.8647 12.0615 61.0563 11.5535C61.267 11.0455 61.3724 10.4905 61.3724 9.88842C61.3724 9.07941 61.2287 8.37387 60.9413 7.77181C60.654 7.16975 60.2708 6.67117 59.7918 6.27607C59.332 5.86215 58.786 5.56112 58.1538 5.37298C57.5407 5.16602 56.9084 5.06254 56.2571 5.06254C55.5673 5.06254 54.9159 5.17543 54.3029 5.4012C53.6898 5.62697 53.1534 5.95623 52.6935 6.38896C52.2337 6.80287 51.8697 7.30145 51.6015 7.8847C51.3525 8.46794 51.2279 9.12644 51.2279 9.8602C51.2279 10.2929 51.2854 10.7068 51.4003 11.1019C51.5153 11.497 51.6686 11.8733 51.8602 12.2308C52.0517 12.5883 52.2721 12.9363 52.5211 13.275C52.6541 13.4458 52.7898 13.6192 52.9282 13.7954C53.0491 13.9491 53.172 14.1049 53.2971 14.2628C53.1211 14.3519 52.946 14.4444 52.7718 14.5402C52.3578 14.7677 51.9485 15.0139 51.544 15.2787C50.9884 15.655 50.4903 16.0878 50.0497 16.5769C49.609 17.0473 49.2546 17.5741 48.9864 18.1573C48.7181 18.7406 48.584 19.3897 48.584 20.1046C48.584 21.0453 48.7373 21.892 49.0438 22.6446C49.3695 23.3783 49.8198 23.9992 50.3945 24.5072C50.9693 25.0152 51.6494 25.4103 52.4349 25.6925C53.2396 25.9559 54.1113 26.0876 55.0501 26.0876C56.2571 26.0876 57.3204 25.8806 58.24 25.4667C59.0216 25.1064 59.7435 24.5765 60.4056 23.8771ZM52.7798 22.6728C52.1667 22.0895 51.8602 21.2523 51.8602 20.1611C51.8602 19.559 51.9655 19.0604 52.1763 18.6653C52.4062 18.2702 52.6744 17.9316 52.9809 17.6493C53.3066 17.3671 53.6515 17.1319 54.0155 16.9438C54.3795 16.7557 54.7148 16.5675 55.0213 16.3794L59.0446 21.2899C58.8914 21.4969 58.7094 21.7321 58.4986 21.9955C58.307 22.2589 58.058 22.5034 57.7514 22.7292C57.4641 22.955 57.1096 23.1525 56.6881 23.3219C56.2666 23.4724 55.7589 23.5476 55.165 23.5476C54.2071 23.5476 53.412 23.256 52.7798 22.6728ZM56.918 12.4284C56.6306 12.6353 56.3337 12.8423 56.0272 13.0492C55.8356 12.8046 55.6248 12.5507 55.3949 12.2873C55.1842 12.0239 54.983 11.7605 54.7914 11.497C54.619 11.2148 54.4657 10.9326 54.3316 10.6504C54.2167 10.3494 54.1592 10.0295 54.1592 9.69087C54.1592 9.01356 54.3699 8.47735 54.7914 8.08225C55.2129 7.66833 55.7302 7.46137 56.3433 7.46137C56.9755 7.46137 57.4832 7.68714 57.8664 8.13869C58.2496 8.57142 58.4411 9.11703 58.4411 9.77554C58.4411 10.1706 58.3741 10.5281 58.24 10.848C58.1059 11.1678 57.9239 11.4594 57.6939 11.7228C57.464 11.9674 57.2054 12.2026 56.918 12.4284Z" fill="white"></path><path d="M60.7976 23.4348C60.6694 23.5891 60.5387 23.7365 60.4056 23.8771C59.7435 24.5765 59.0216 25.1064 58.24 25.4667C57.3204 25.8806 56.2571 26.0876 55.0501 26.0876C54.1113 26.0876 53.2396 25.9559 52.4349 25.6925C51.6494 25.4103 50.9693 25.0152 50.3945 24.5072C49.8198 23.9992 49.3695 23.3783 49.0438 22.6446C48.7373 21.892 48.584 21.0453 48.584 20.1046C48.584 19.3897 48.7181 18.7406 48.9864 18.1573C49.2546 17.5741 49.609 17.0473 50.0497 16.5769C50.4903 16.0878 50.9884 15.655 51.544 15.2787C51.9485 15.0139 52.3578 14.7677 52.7718 14.5402C52.946 14.4444 53.1211 14.3519 53.2971 14.2628C53.172 14.1049 53.0491 13.9491 52.9282 13.7954C52.7898 13.6192 52.6541 13.4458 52.5211 13.275C52.2721 12.9363 52.0517 12.5883 51.8602 12.2308C51.6686 11.8733 51.5153 11.497 51.4003 11.1019C51.2854 10.7068 51.2279 10.2929 51.2279 9.8602C51.2279 9.12644 51.3525 8.46794 51.6015 7.8847C51.8697 7.30145 52.2337 6.80287 52.6935 6.38896C53.1534 5.95623 53.6898 5.62697 54.3029 5.4012L54.101 4.85315C53.4189 5.10435 52.816 5.47296 52.298 5.95922C51.7792 6.42746 51.3701 6.99002 51.0709 7.64068L51.0676 7.64796L51.0644 7.65534C50.7799 8.32157 50.6439 9.05987 50.6439 9.8602C50.6439 10.3453 50.7084 10.8143 50.8396 11.2651C50.9657 11.6987 51.1343 12.1128 51.3454 12.5067C51.5505 12.8894 51.7858 13.2609 52.0506 13.621L52.0554 13.6275L52.0603 13.6338C52.1734 13.7791 52.2885 13.9263 52.4055 14.0753C52.0071 14.2971 51.6133 14.5353 51.2241 14.7901L51.2203 14.7926L51.2165 14.7952C50.6242 15.1963 50.0914 15.6586 49.6195 16.1818C49.1379 16.6968 48.7495 17.2745 48.4558 17.9133C48.1485 18.5814 48 19.3151 48 20.1046C48 21.1091 48.1638 22.0322 48.503 22.8649L48.5064 22.8732L48.51 22.8815C48.8681 23.6883 49.3672 24.3786 50.0077 24.9448C50.6426 25.5059 51.3885 25.9371 52.2374 26.2421L52.2453 26.2449L52.2532 26.2475C53.1225 26.5321 54.0562 26.6716 55.0501 26.6716C56.3237 26.6716 57.4714 26.4531 58.4797 25.9993L58.4845 25.9971C59.3219 25.6111 60.0866 25.0519 60.7805 24.3302L62.3908 26.2765H67.9426L63.4691 20.9534C63.8504 20.295 64.1518 19.5887 64.3737 18.836C64.6526 17.9541 64.842 17.0526 64.9418 16.1318L65.0119 15.4849H60.9673L60.9072 16.0014C60.8324 16.6442 60.741 17.1476 60.6372 17.5213L60.6178 17.591L58.563 15.155C58.8606 14.9708 59.1478 14.7725 59.4245 14.5601C59.9205 14.1942 60.3501 13.7836 60.7095 13.3271C61.089 12.8506 61.3864 12.3305 61.5994 11.7684C61.8398 11.1855 61.9564 10.5566 61.9564 9.88842C61.9564 9.01056 61.8004 8.21578 61.4684 7.52023C61.149 6.85111 60.718 6.2855 60.1732 5.83357C59.6492 5.3645 59.0319 5.02645 58.3306 4.81626C57.66 4.5911 56.968 4.47852 56.2571 4.47852C55.5023 4.47852 54.7823 4.60228 54.101 4.85315L54.3029 5.4012C54.9159 5.17543 55.5673 5.06254 56.2571 5.06254C56.9084 5.06254 57.5407 5.16602 58.1538 5.37298C58.786 5.56112 59.332 5.86215 59.7918 6.27607C60.2708 6.67117 60.654 7.16975 60.9413 7.77181C61.2287 8.37387 61.3724 9.07941 61.3724 9.88842C61.3724 10.4905 61.267 11.0455 61.0563 11.5535C60.8647 12.0615 60.5965 12.5318 60.2516 12.9646C59.9259 13.3785 59.5332 13.7548 59.0734 14.0934C58.7883 14.3125 58.4912 14.5159 58.1821 14.7035C58.0134 14.8058 57.8411 14.9035 57.6652 14.9965L60.8551 18.7782C60.9266 18.5792 60.9981 18.3621 61.0696 18.1267C61.1131 17.9837 61.1565 17.834 61.2 17.6776C61.3149 17.2636 61.4107 16.7274 61.4874 16.0689H64.3611C64.34 16.2645 64.3145 16.4592 64.2849 16.653C64.1806 17.3352 64.024 18.0059 63.8151 18.6653C63.5661 19.512 63.2116 20.2928 62.7518 21.0077L66.6889 25.6925H62.6656L60.7976 23.4348Z" fill="white"></path><path d="M0 4.47852H9.86775L20.9129 35.8198H21.025L31.7899 4.47852H41.5455V44.5102H34.8735V13.6174H34.7614L23.6602 44.5102H17.8853L6.78408 13.6174H6.67194V44.5102H0V4.47852Z" fill="white"></path><path d="M74.2319 6.35104H83.5529C85.0521 6.35104 86.2752 6.56804 87.2221 7.00203C88.1689 7.43602 88.8988 7.97851 89.4117 8.62949C89.9246 9.28048 90.2699 9.99065 90.4474 10.76C90.6447 11.5293 90.7433 12.2395 90.7433 12.8905C90.7433 13.5415 90.6447 14.2517 90.4474 15.021C90.2699 15.7706 89.9246 16.4709 89.4117 17.1219C88.8988 17.7729 88.1689 18.3154 87.2221 18.7494C86.2752 19.1636 85.0521 19.3708 83.5529 19.3708H77.9307V27.4785H74.2319V6.35104ZM77.9307 16.3526H83.3457C83.76 16.3526 84.1841 16.2934 84.6181 16.175C85.0521 16.0567 85.4466 15.8693 85.8017 15.6128C86.1765 15.3366 86.4724 14.9815 86.6894 14.5476C86.9261 14.0938 87.0445 13.5316 87.0445 12.8609C87.0445 12.1705 86.9459 11.5984 86.7486 11.1447C86.5513 10.691 86.285 10.3359 85.9497 10.0794C85.6143 9.80324 85.2296 9.61584 84.7956 9.5172C84.3617 9.41857 83.8981 9.36925 83.4049 9.36925H77.9307V16.3526ZM93.9684 6.35104H104.059C106.386 6.35104 108.132 6.85408 109.296 7.86015C110.46 8.86622 111.042 10.2668 111.042 12.062C111.042 13.068 110.894 13.9064 110.598 14.5771C110.302 15.2281 109.957 15.7608 109.562 16.175C109.168 16.5696 108.773 16.8556 108.379 17.0331C108.004 17.2107 107.728 17.329 107.55 17.3882V17.4474C107.866 17.4869 108.201 17.5855 108.556 17.7433C108.931 17.9011 109.276 18.1576 109.592 18.5127C109.908 18.848 110.164 19.2919 110.361 19.8442C110.578 20.3966 110.687 21.087 110.687 21.9155C110.687 23.1583 110.776 24.2926 110.953 25.3184C111.151 26.3245 111.446 27.0445 111.841 27.4785H107.876C107.6 27.0248 107.432 26.5218 107.373 25.9694C107.333 25.4171 107.314 24.8844 107.314 24.3715C107.314 23.4049 107.254 22.5764 107.136 21.8859C107.018 21.1758 106.801 20.5938 106.485 20.1401C106.169 19.6667 105.735 19.3215 105.183 19.1045C104.651 18.8875 103.96 18.779 103.112 18.779H97.6672V27.4785H93.9684V6.35104ZM97.6672 15.9679H103.733C104.917 15.9679 105.814 15.6917 106.426 15.1394C107.037 14.5673 107.343 13.719 107.343 12.5946C107.343 11.9239 107.245 11.3814 107.047 10.9671C106.85 10.5331 106.574 10.1978 106.219 9.96106C105.883 9.72434 105.489 9.56652 105.035 9.48761C104.601 9.4087 104.147 9.36925 103.674 9.36925H97.6672V15.9679ZM123.798 8.86622C122.674 8.86622 121.698 9.09308 120.869 9.54679C120.06 10.0005 119.399 10.612 118.886 11.3814C118.374 12.131 117.989 12.9891 117.732 13.9557C117.496 14.9224 117.377 15.9087 117.377 16.9148C117.377 17.9208 117.496 18.9072 117.732 19.8738C117.989 20.8404 118.374 21.7084 118.886 22.4778C119.399 23.2274 120.06 23.829 120.869 24.2828C121.698 24.7365 122.674 24.9633 123.798 24.9633C124.923 24.9633 125.889 24.7365 126.698 24.2828C127.527 23.829 128.198 23.2274 128.71 22.4778C129.223 21.7084 129.598 20.8404 129.835 19.8738C130.091 18.9072 130.22 17.9208 130.22 16.9148C130.22 15.9087 130.091 14.9224 129.835 13.9557C129.598 12.9891 129.223 12.131 128.71 11.3814C128.198 10.612 127.527 10.0005 126.698 9.54679C125.889 9.09308 124.923 8.86622 123.798 8.86622ZM123.798 5.84801C125.377 5.84801 126.787 6.14391 128.03 6.73571C129.292 7.32752 130.358 8.12646 131.226 9.13253C132.094 10.1386 132.754 11.3123 133.208 12.6538C133.682 13.9952 133.918 15.4155 133.918 16.9148C133.918 18.4337 133.682 19.8639 133.208 21.2054C132.754 22.5468 132.094 23.7205 131.226 24.7266C130.358 25.7327 129.292 26.5316 128.03 27.1234C126.787 27.6955 125.377 27.9816 123.798 27.9816C122.22 27.9816 120.8 27.6955 119.537 27.1234C118.295 26.5316 117.239 25.7327 116.371 24.7266C115.503 23.7205 114.833 22.5468 114.359 21.2054C113.905 19.8639 113.679 18.4337 113.679 16.9148C113.679 15.4155 113.905 13.9952 114.359 12.6538C114.833 11.3123 115.503 10.1386 116.371 9.13253C117.239 8.12646 118.295 7.32752 119.537 6.73571C120.8 6.14391 122.22 5.84801 123.798 5.84801ZM137.285 6.35104H146.043C147.661 6.35104 149.062 6.62722 150.245 7.17957C151.429 7.73192 152.395 8.49141 153.145 9.45802C153.895 10.4049 154.447 11.5195 154.802 12.8017C155.177 14.084 155.364 15.455 155.364 16.9148C155.364 18.3746 155.177 19.7456 154.802 21.0278C154.447 22.3101 153.895 23.4345 153.145 24.4011C152.395 25.348 151.429 26.0976 150.245 26.65C149.062 27.2023 147.661 27.4785 146.043 27.4785H137.285V6.35104ZM140.983 24.4603H144.623C146.063 24.4603 147.237 24.2729 148.144 23.8981C149.071 23.5036 149.792 22.9709 150.304 22.3002C150.837 21.6098 151.192 20.8108 151.37 19.9034C151.567 18.9762 151.666 17.98 151.666 16.9148C151.666 15.8495 151.567 14.8632 151.37 13.9557C151.192 13.0286 150.837 12.2296 150.304 11.5589C149.792 10.8685 149.071 10.3359 148.144 9.96106C147.237 9.56652 146.063 9.36925 144.623 9.36925H140.983V24.4603ZM158.403 6.35104H162.101V18.6606C162.101 19.3708 162.131 20.0908 162.19 20.8207C162.269 21.5506 162.466 22.2114 162.782 22.8032C163.117 23.3753 163.611 23.8488 164.262 24.2236C164.932 24.5984 165.869 24.7858 167.073 24.7858C168.276 24.7858 169.203 24.5984 169.854 24.2236C170.525 23.8488 171.018 23.3753 171.334 22.8032C171.669 22.2114 171.866 21.5506 171.925 20.8207C172.004 20.0908 172.044 19.3708 172.044 18.6606V6.35104H175.743V19.8738C175.743 21.235 175.535 22.4186 175.121 23.4246C174.707 24.4307 174.115 25.279 173.346 25.9694C172.596 26.6401 171.689 27.1432 170.623 27.4785C169.558 27.8139 168.375 27.9816 167.073 27.9816C165.771 27.9816 164.587 27.8139 163.522 27.4785C162.457 27.1432 161.539 26.6401 160.77 25.9694C160.02 25.279 159.438 24.4307 159.024 23.4246C158.61 22.4186 158.403 21.235 158.403 19.8738V6.35104ZM194.257 13.068C194.099 12.4565 193.882 11.8943 193.606 11.3814C193.329 10.8685 192.974 10.4246 192.54 10.0498C192.106 9.67502 191.594 9.38898 191.002 9.19171C190.43 8.97471 189.759 8.86622 188.99 8.86622C187.865 8.86622 186.889 9.09308 186.06 9.54679C185.251 10.0005 184.59 10.612 184.078 11.3814C183.565 12.131 183.18 12.9891 182.924 13.9557C182.687 14.9224 182.568 15.9087 182.568 16.9148C182.568 17.9208 182.687 18.9072 182.924 19.8738C183.18 20.8404 183.565 21.7084 184.078 22.4778C184.59 23.2274 185.251 23.829 186.06 24.2828C186.889 24.7365 187.865 24.9633 188.99 24.9633C189.818 24.9633 190.548 24.8253 191.179 24.5491C191.811 24.2532 192.353 23.8586 192.807 23.3655C193.26 22.8526 193.616 22.2608 193.872 21.59C194.128 20.9193 194.296 20.1993 194.375 19.43H197.985C197.906 20.6925 197.63 21.8465 197.156 22.892C196.703 23.9375 196.081 24.845 195.292 25.6143C194.503 26.3639 193.576 26.9459 192.511 27.3602C191.446 27.7744 190.272 27.9816 188.99 27.9816C187.411 27.9816 185.991 27.6955 184.729 27.1234C183.486 26.5316 182.43 25.7327 181.562 24.7266C180.694 23.7205 180.024 22.5468 179.55 21.2054C179.097 19.8639 178.87 18.4337 178.87 16.9148C178.87 15.4155 179.097 13.9952 179.55 12.6538C180.024 11.3123 180.694 10.1386 181.562 9.13253C182.43 8.12646 183.486 7.32752 184.729 6.73571C185.991 6.14391 187.411 5.84801 188.99 5.84801C190.173 5.84801 191.288 6.01568 192.333 6.35104C193.379 6.66667 194.296 7.14012 195.085 7.77138C195.894 8.38291 196.545 9.13253 197.038 10.0202C197.531 10.9079 197.837 11.9239 197.955 13.068H194.257ZM199.337 6.35104H216.44V9.54679H209.723V27.4785H206.024V9.54679H199.337V6.35104ZM218.889 6.35104H222.588V27.4785H218.889V6.35104ZM236.12 8.86622C234.996 8.86622 234.019 9.09308 233.191 9.54679C232.382 10.0005 231.721 10.612 231.208 11.3814C230.695 12.131 230.311 12.9891 230.054 13.9557C229.817 14.9224 229.699 15.9087 229.699 16.9148C229.699 17.9208 229.817 18.9072 230.054 19.8738C230.311 20.8404 230.695 21.7084 231.208 22.4778C231.721 23.2274 232.382 23.829 233.191 24.2828C234.019 24.7365 234.996 24.9633 236.12 24.9633C237.245 24.9633 238.211 24.7365 239.02 24.2828C239.849 23.829 240.519 23.2274 241.032 22.4778C241.545 21.7084 241.92 20.8404 242.157 19.8738C242.413 18.9072 242.541 17.9208 242.541 16.9148C242.541 15.9087 242.413 14.9224 242.157 13.9557C241.92 12.9891 241.545 12.131 241.032 11.3814C240.519 10.612 239.849 10.0005 239.02 9.54679C238.211 9.09308 237.245 8.86622 236.12 8.86622ZM236.12 5.84801C237.698 5.84801 239.109 6.14391 240.352 6.73571C241.614 7.32752 242.679 8.12646 243.547 9.13253C244.415 10.1386 245.076 11.3123 245.53 12.6538C246.003 13.9952 246.24 15.4155 246.24 16.9148C246.24 18.4337 246.003 19.8639 245.53 21.2054C245.076 22.5468 244.415 23.7205 243.547 24.7266C242.679 25.7327 241.614 26.5316 240.352 27.1234C239.109 27.6955 237.698 27.9816 236.12 27.9816C234.542 27.9816 233.122 27.6955 231.859 27.1234C230.616 26.5316 229.561 25.7327 228.693 24.7266C227.825 23.7205 227.154 22.5468 226.681 21.2054C226.227 19.8639 226 18.4337 226 16.9148C226 15.4155 226.227 13.9952 226.681 12.6538C227.154 11.3123 227.825 10.1386 228.693 9.13253C229.561 8.12646 230.616 7.32752 231.859 6.73571C233.122 6.14391 234.542 5.84801 236.12 5.84801ZM249.459 6.35104H253.364L263.011 21.9155H263.07V6.35104H266.591V27.4785H262.685L253.069 11.9436H252.98V27.4785H249.459V6.35104ZM273.388 20.436C273.388 21.2448 273.526 21.9353 273.802 22.5073C274.078 23.0794 274.463 23.5529 274.956 23.9277C275.449 24.2828 276.011 24.5491 276.642 24.7266C277.293 24.8844 277.994 24.9633 278.743 24.9633C279.552 24.9633 280.243 24.8746 280.815 24.697C281.387 24.4998 281.85 24.2532 282.205 23.9573C282.561 23.6614 282.817 23.326 282.975 22.9512C283.133 22.5567 283.212 22.1621 283.212 21.7676C283.212 20.9588 283.024 20.367 282.649 19.9922C282.294 19.5976 281.9 19.3215 281.466 19.1636C280.716 18.8875 279.838 18.631 278.832 18.3943C277.846 18.1378 276.623 17.8124 275.163 17.4178C274.256 17.1811 273.496 16.8753 272.885 16.5005C272.293 16.106 271.819 15.672 271.464 15.1985C271.109 14.7251 270.853 14.2221 270.695 13.6894C270.557 13.1568 270.488 12.6143 270.488 12.062C270.488 10.9967 270.705 10.0794 271.139 9.31007C271.592 8.521 272.184 7.87001 272.914 7.35711C273.644 6.84421 274.473 6.4694 275.4 6.23268C276.327 5.97623 277.264 5.84801 278.211 5.84801C279.315 5.84801 280.351 5.99596 281.318 6.29186C282.304 6.56804 283.162 6.99216 283.892 7.56424C284.642 8.13632 285.234 8.84649 285.668 9.69475C286.102 10.5233 286.319 11.4899 286.319 12.5946H282.62C282.521 11.2334 282.058 10.2767 281.229 9.72434C280.4 9.15226 279.345 8.86622 278.063 8.86622C277.629 8.86622 277.185 8.91553 276.731 9.01417C276.278 9.09308 275.863 9.24103 275.488 9.45802C275.114 9.65529 274.798 9.93147 274.542 10.2866C274.305 10.6416 274.187 11.0855 274.187 11.6181C274.187 12.3677 274.413 12.9595 274.867 13.3935C275.341 13.8078 275.952 14.1234 276.702 14.3404C276.781 14.3601 277.086 14.4489 277.619 14.6067C278.171 14.7448 278.783 14.9026 279.454 15.0802C280.124 15.2577 280.775 15.4353 281.407 15.6128C282.058 15.7706 282.521 15.889 282.797 15.9679C283.488 16.1849 284.089 16.4808 284.602 16.8556C285.115 17.2304 285.539 17.6644 285.875 18.1576C286.23 18.631 286.486 19.1439 286.644 19.6963C286.822 20.2486 286.91 20.801 286.91 21.3533C286.91 22.5369 286.664 23.5529 286.171 24.4011C285.697 25.2297 285.066 25.9102 284.277 26.4429C283.488 26.9755 282.59 27.3602 281.584 27.5969C280.578 27.8533 279.552 27.9816 278.507 27.9816C277.303 27.9816 276.169 27.8336 275.104 27.5377C274.039 27.2418 273.111 26.7881 272.322 26.1765C271.533 25.565 270.902 24.7858 270.429 23.8389C269.955 22.8723 269.709 21.738 269.689 20.436H273.388Z" fill="white"></path></svg>