<?xml version="1.0" encoding="UTF-8"?>
<!-- Generator: Adobe Illustrator 28.1.0, SVG Export Plug-In . SVG Version: 6.00 Build 0)  -->
<svg xmlns="http://www.w3.org/2000/svg" xmlns:xlink="http://www.w3.org/1999/xlink" version="1.1" id="Layer_1" x="0px" y="0px" viewBox="0 0 774 84" style="enable-background:new 0 0 774 84;" xml:space="preserve">
<style type="text/css">
	.st0{fill-rule:evenodd;clip-rule:evenodd;fill:#FFFFFF;}
	.st1{fill:#FFFFFF;}
</style>
<g>
	<g>
		<path class="st0" d="M114.1,23.1l-5.4,5.5l-8.7-8.7l-8.7,8.7l-5.5-5.5l8.7-8.7l-8.6-8.7l5.5-5.5L99.9,9l8.7-8.7l5.5,5.5l-8.7,8.7    L114.1,23.1z"></path>
		<path class="st1" d="M0,48V0.3h24.4L38.5,30L52.6,0.3h24.3V48H61.3V15.1L45.7,48H31.2L15.6,15.1V48H0z"></path>
		<path class="st1" d="M89,83.9c-19.1,0-27.7-8.6-27.7-24.6h15.6c0,5.5,2,11.5,12.1,11.5s12-6,12-11.5V48H83.1V34.9h33.5v24.4    C116.7,75.2,108.6,83.9,89,83.9z"></path>
		<path class="st1" d="M142.4,1.4h32.7c11.1,0,18,6.1,18,16.2c0,10.1-7,16.2-18,16.2h-24.1v12.8h-8.6L142.4,1.4L142.4,1.4z     M173.3,26.7c6.7,0,11-2.7,11-9s-4.3-8.9-11-8.9h-22.4v17.9H173.3z"></path>
		<path class="st1" d="M201.4,1.4H236c12,0,17.6,4.5,17.6,13c0,6-3.3,10.1-9.5,11.7c5.5,0.2,9.1,3.3,9.1,8.7v11.9h-8.5V36    c0-4.1-2-5.8-6.1-5.8h-28.8v16.5h-8.6L201.4,1.4L201.4,1.4z M234.2,23.2c6.9,0,10.6-2.1,10.6-7.6s-3.7-7.2-10.6-7.2h-24.3v14.8    H234.2z"></path>
		<path class="st1" d="M260.7,24.1c0-14.4,11.7-23.8,30-23.8c18.3,0,30,9.4,30,23.8c0,14.4-11.7,24-30,24    C272.4,48,260.7,38.6,260.7,24.1z M290.7,40.7c13.1,0,21.1-6.8,21.1-16.7c0-9.8-8-16.5-21.1-16.5c-13.2,0-21.1,6.8-21.1,16.5    C269.5,33.8,277.5,40.7,290.7,40.7z"></path>
		<path class="st1" d="M328.9,1.4h29.5c13.7,0,23.9,9.6,23.9,22.6s-10.1,22.7-23.9,22.7h-29.5V1.4z M355.1,39.4    c11.2,0,18.4-6.1,18.4-15.4s-7.2-15.3-18.4-15.3h-17.6v30.7H355.1z"></path>
		<path class="st1" d="M390.5,24.6V1.4h8.6v22.9c0,8.2,3.3,16.3,17.9,16.3s17.8-8.2,17.8-16.3V1.4h8.6v23.2    c0,13.9-6.8,23.4-26.4,23.4S390.5,38.5,390.5,24.6L390.5,24.6z"></path>
		<path class="st1" d="M451.3,24.1c0-14.4,12.2-23.8,29.5-23.8c15.5,0,26.8,7.9,28.2,18.3h-9c-1.1-5.4-8.1-11.1-19.2-11.1    c-12.5,0-20.6,6.9-20.6,16.5s8.1,16.7,20.6,16.7c11.1,0,18.1-5.8,19.2-11.2h9C507.7,40.1,496.3,48,480.8,48    C463.5,48,451.3,38.5,451.3,24.1L451.3,24.1z"></path>
		<path class="st1" d="M512.1,1.4h52.2v7.3h-21.8v38H534v-38h-21.9L512.1,1.4L512.1,1.4z"></path>
		<path class="st1" d="M571.6,1.4h8.6v45.3h-8.6V1.4z"></path>
		<path class="st1" d="M588.3,24.1c0-14.4,11.7-23.8,30-23.8c18.3,0,30,9.4,30,23.8c0,14.4-11.7,24-30,24    C600.1,48,588.3,38.6,588.3,24.1z M618.4,40.7c13.1,0,21.1-6.8,21.1-16.7c0-9.8-8-16.5-21.1-16.5c-13.2,0-21.1,6.8-21.1,16.5    C597.2,33.8,605.2,40.7,618.4,40.7z"></path>
		<path class="st1" d="M656.6,1.4h12.6L703.4,39V1.4h8.5v45.3h-12.5L665.1,9.2v37.6h-8.6V1.4z"></path>
		<path class="st1" d="M719.9,31.6h8.9c0,7.2,5.7,10,19.5,10c11.9,0,16.9-2,16.9-7.4s-3.7-6.1-17.4-7l-2.6-0.2    c-17.8-1.1-24-4.7-24-13.9c0-9.2,8.8-12.8,24.6-12.8c17.2,0,25.9,5.1,26.2,15.6h-8.8c0-7.1-6.3-9.3-18.1-9.3    c-11,0-15.1,1.8-15.1,6.5c0,5.3,3.8,6.5,16.3,7.3l2.7,0.2c16,1.1,24.9,2.4,24.9,13.3S764.3,48,748.3,48    C729.9,48,720.2,43.9,719.9,31.6L719.9,31.6z"></path>
	</g>
</g>
</svg>
