<svg xmlns="http://www.w3.org/2000/svg" width="29" height="30" viewBox="0 0 29 30" fill="none"><g clip-path="url(#clip0_2115_601)"><path fill-rule="evenodd" clip-rule="evenodd" d="M24.6499 23.8098C24.6499 24.9592 23.8475 25.9211 22.7727 26.1653V26.2201H22.395C22.3422 26.2236 22.2892 26.2253 22.2356 26.2253H17.709C17.6822 26.2253 17.6556 26.2236 17.6296 26.2201H13.2617C13.2357 26.2236 13.2092 26.2253 13.1823 26.2253H5.3361C4.00276 26.2253 2.92188 25.1439 2.92188 23.8098V6.90178C2.92188 5.56776 4.00276 4.48633 5.3361 4.48633H22.2356C23.569 4.48633 24.6499 5.56776 24.6499 6.90178V23.8098ZM18.5855 10.6385C18.6861 10.7042 18.79 10.7649 18.8967 10.8201C19.5912 11.1672 20.2697 11.2729 20.6037 11.2366V13.9392C20.6037 13.9392 19.6503 13.8996 18.9425 13.7114C17.9562 13.4469 17.3239 13.0407 17.3239 13.0407C17.3239 13.0407 16.885 12.7497 16.8521 12.7299V18.3148C16.8521 18.6252 16.7702 19.402 16.5243 20.0496C16.3089 20.6033 16.001 21.1162 15.6136 21.5664C15.6136 21.5664 15.0074 22.3197 13.9427 22.8252C13.0552 23.2468 12.2656 23.27 11.952 23.2791C11.9264 23.2798 11.9039 23.2806 11.8849 23.2813C11.8849 23.2813 10.427 23.3401 9.11217 22.4445L9.10558 22.4378V22.4445C8.66104 22.1336 8.26462 21.7587 7.92908 21.3319C7.51298 20.7999 7.25766 20.1688 7.19176 19.9839V19.9772C7.08699 19.6632 6.86725 18.9033 6.90019 18.1699C6.95257 16.8777 7.38516 16.0815 7.49981 15.8834C7.80109 15.34 8.19466 14.8535 8.66279 14.4458C9.19706 13.9969 9.81833 13.6638 10.4875 13.4676C11.1566 13.2714 11.859 13.2163 12.5504 13.3058L12.5471 16.0779C12.3193 16.0035 12.0813 15.9657 11.8417 15.9658C10.5763 15.9658 9.55067 17.0002 9.55067 18.2775C9.55067 19.5549 10.5763 20.5893 11.8417 20.5893C12.2357 20.5897 12.6231 20.4872 12.9655 20.292C13.2941 20.1049 13.5718 19.8397 13.7741 19.5197C13.9764 19.1999 14.0972 18.8349 14.1259 18.4573V18.4513C14.1275 18.4433 14.1275 18.4354 14.1275 18.4278C14.1278 18.4218 14.1282 18.4161 14.1286 18.4104C14.1294 18.3989 14.1301 18.3878 14.1301 18.3762C14.1361 18.2383 14.1361 18.0986 14.1361 17.9573V7.42995H16.8521C16.8478 7.42995 16.8196 7.69083 16.8881 8.09405H16.8847C16.9667 8.57982 17.1895 9.27365 17.7859 9.95757C18.0242 10.2159 18.2926 10.4445 18.5855 10.6385Z" fill="white"></path></g><defs><clipPath id="clip0_2115_601"><rect width="28.9853" height="28.9853" fill="white" transform="translate(0.015625 0.863281)"></rect></clipPath></defs></svg>