<svg width="43" height="27" viewBox="0 0 43 27" fill="none" xmlns="http://www.w3.org/2000/svg">
<path d="M42.8895 0.904297H0.296875V26.4599H42.8895V0.904297Z" fill="#00CA00"/>
<path d="M42.8895 4.64844H0.296875V22.5818H42.8895V4.64844Z" fill="#000100"/>
<path d="M42.8895 5.76953H0.296875V21.4614H42.8895V5.76953Z" fill="#0001FD"/>
<path fill-rule="evenodd" clip-rule="evenodd" d="M15.0938 19.8905L17.3353 17.425C17.3353 17.425 15.7663 15.1829 15.7663 12.2688C15.7663 9.3548 18.0078 7.11328 20.6979 7.11328L21.8189 8.90624L22.9394 7.11328C25.1815 7.11328 27.8716 8.90624 27.8716 12.0449C27.8716 15.1829 26.302 17.425 26.302 17.425L28.7681 20.1151L24.0604 18.994V11.8209C24.0604 11.3724 23.164 10.4759 21.8189 10.4759C20.6979 10.4759 19.8014 11.3724 19.8014 11.8209V18.77L15.0938 19.8905Z" fill="white"/>
<path fill-rule="evenodd" clip-rule="evenodd" d="M20.9064 14.6795L21.2285 13.6502L20.375 12.9903L21.4537 12.9783L21.8175 11.9629L22.1623 12.9846L23.2403 13.0169L22.3748 13.6603L22.6779 14.696L21.7979 14.0715L20.9064 14.6795Z" fill="white"/>
</svg>
