<svg xmlns="http://www.w3.org/2000/svg" xmlns:xlink="http://www.w3.org/1999/xlink" id="Layer_1" x="0px" y="0px" viewBox="0 0 29 30" style="enable-background:new 0 0 29 30;" xml:space="preserve"><style type="text/css">	.st0{fill:#FFFFFF;}</style><g>	<path class="st0" d="M22.2,4.5H5.3C4,4.5,2.9,5.6,2.9,6.9v16.9c0,1.3,1.1,2.4,2.4,2.4h7.8c0,0,0.1,0,0.1,0h4.4c0,0,0.1,0,0.1,0h4.5   c0.1,0,0.1,0,0.2,0h0.4v-0.1c1.1-0.2,1.9-1.2,1.9-2.4V6.9C24.6,5.6,23.6,4.5,22.2,4.5z M17.2,23.3l-4.2-6.1l-5.3,6.1H6.3l6-7   l-6-8.8h4.6l4,5.8l5-5.8h1.4l-5.8,6.7h0l6.3,9.1H17.2z"></path>	<polygon class="st0" points="14.2,14.1 10.2,8.5 8.1,8.5 13,15.5 13.6,16.3 13.6,16.3 17.8,22.3 19.9,22.3 14.8,15  "></polygon></g></svg>