<svg xmlns="http://www.w3.org/2000/svg" width="32" height="31" viewBox="0 0 32 31" fill="none"><g clip-path="url(#clip0_2115_597)"><g clip-path="url(#clip1_2115_597)"><path fill-rule="evenodd" clip-rule="evenodd" d="M23.5434 6.17478L25.3305 6.35838C27.4461 6.5975 29.0348 8.40327 29.0025 10.5321V20.5686C29.0348 22.6974 27.4461 24.503 25.3305 24.7423L23.6169 24.9259C18.27 25.4765 12.8806 25.4765 7.53369 24.9259L5.74667 24.7423C3.63102 24.503 2.04233 22.6974 2.0747 20.5686V10.5321C2.04233 8.40327 3.63102 6.5975 5.74667 6.35838L7.46025 6.17478C12.8072 5.62403 18.1966 5.62403 23.5434 6.17478ZM14.4492 19.4914L19.2105 16.3092H19.2839C19.5405 16.142 19.6953 15.8565 19.6953 15.5503C19.6953 15.2441 19.5405 14.9586 19.2839 14.7914L14.5227 11.6091C14.2416 11.4191 13.8786 11.3997 13.5788 11.5585C13.2789 11.7174 13.0912 12.0287 13.0906 12.368V18.7326C13.1064 19.0484 13.2837 19.3339 13.5598 19.4882C13.8359 19.6424 14.172 19.6437 14.4492 19.4914Z" fill="white"></path></g></g><defs><clipPath id="clip0_2115_597"><rect width="30.8906" height="29.4062" fill="white" transform="translate(0.433594 0.863281)"></rect></clipPath><clipPath id="clip1_2115_597"><rect width="30.875" height="29.375" fill="white" transform="translate(0.433594 0.863281)"></rect></clipPath></defs></svg>